<mxfile host="app.diagrams.net" modified="2023-04-21T15:39:56.721Z" agent="Mozilla/5.0 (Windows NT 10.0; Win64; x64) AppleWebKit/537.36 (KHTML, like Gecko) Chrome/112.0.0.0 Safari/537.36" etag="YGx6DEbFHPD41jFWhtm8" version="21.2.1" type="device">
  <diagram name="Page-1" id="agY0_pRUQys5GmOzdEG4">
    <mxGraphModel dx="1434" dy="1864" grid="1" gridSize="10" guides="1" tooltips="1" connect="1" arrows="1" fold="1" page="1" pageScale="1" pageWidth="850" pageHeight="1100" math="0" shadow="0">
      <root>
        <mxCell id="0" />
        <mxCell id="1" parent="0" />
        <mxCell id="0HKcewtW-88DahNUEZpr-1" value="" style="swimlane;startSize=0;flipV=0;flipH=1;" vertex="1" parent="1">
          <mxGeometry x="60" y="-540" width="680" height="1150" as="geometry" />
        </mxCell>
        <mxCell id="0HKcewtW-88DahNUEZpr-15" value="" style="edgeStyle=orthogonalEdgeStyle;rounded=0;orthogonalLoop=1;jettySize=auto;html=1;" edge="1" parent="0HKcewtW-88DahNUEZpr-1" source="0HKcewtW-88DahNUEZpr-2">
          <mxGeometry relative="1" as="geometry">
            <mxPoint x="340" y="160" as="targetPoint" />
          </mxGeometry>
        </mxCell>
        <mxCell id="0HKcewtW-88DahNUEZpr-2" value="Data Collection" style="rounded=0;whiteSpace=wrap;html=1;" vertex="1" parent="0HKcewtW-88DahNUEZpr-1">
          <mxGeometry x="120" y="40" width="440" height="60" as="geometry" />
        </mxCell>
        <mxCell id="0HKcewtW-88DahNUEZpr-20" value="" style="edgeStyle=orthogonalEdgeStyle;rounded=0;orthogonalLoop=1;jettySize=auto;html=1;" edge="1" parent="0HKcewtW-88DahNUEZpr-1" source="0HKcewtW-88DahNUEZpr-16" target="0HKcewtW-88DahNUEZpr-19">
          <mxGeometry relative="1" as="geometry" />
        </mxCell>
        <mxCell id="0HKcewtW-88DahNUEZpr-16" value="Data Preprocessing" style="rounded=0;whiteSpace=wrap;html=1;" vertex="1" parent="0HKcewtW-88DahNUEZpr-1">
          <mxGeometry x="120" y="160" width="440" height="50" as="geometry" />
        </mxCell>
        <mxCell id="0HKcewtW-88DahNUEZpr-19" value="Data Partition" style="whiteSpace=wrap;html=1;rounded=0;" vertex="1" parent="0HKcewtW-88DahNUEZpr-1">
          <mxGeometry x="120" y="250" width="440" height="60" as="geometry" />
        </mxCell>
        <mxCell id="0HKcewtW-88DahNUEZpr-38" value="" style="edgeStyle=orthogonalEdgeStyle;rounded=0;orthogonalLoop=1;jettySize=auto;html=1;" edge="1" parent="0HKcewtW-88DahNUEZpr-1" source="0HKcewtW-88DahNUEZpr-22" target="0HKcewtW-88DahNUEZpr-36">
          <mxGeometry relative="1" as="geometry" />
        </mxCell>
        <mxCell id="0HKcewtW-88DahNUEZpr-22" value="Training Data" style="rounded=0;whiteSpace=wrap;html=1;" vertex="1" parent="0HKcewtW-88DahNUEZpr-1">
          <mxGeometry x="120" y="370" width="120" height="60" as="geometry" />
        </mxCell>
        <mxCell id="0HKcewtW-88DahNUEZpr-32" value="Testing Data" style="rounded=0;whiteSpace=wrap;html=1;" vertex="1" parent="0HKcewtW-88DahNUEZpr-1">
          <mxGeometry x="440" y="370" width="120" height="60" as="geometry" />
        </mxCell>
        <mxCell id="0HKcewtW-88DahNUEZpr-34" value="" style="edgeStyle=none;orthogonalLoop=1;jettySize=auto;html=1;rounded=0;entryX=0.558;entryY=0.033;entryDx=0;entryDy=0;entryPerimeter=0;" edge="1" parent="0HKcewtW-88DahNUEZpr-1" target="0HKcewtW-88DahNUEZpr-32">
          <mxGeometry width="100" relative="1" as="geometry">
            <mxPoint x="507" y="310" as="sourcePoint" />
            <mxPoint x="550" y="340" as="targetPoint" />
            <Array as="points">
              <mxPoint x="507" y="310" />
            </Array>
          </mxGeometry>
        </mxCell>
        <mxCell id="0HKcewtW-88DahNUEZpr-35" value="" style="edgeStyle=none;orthogonalLoop=1;jettySize=auto;html=1;rounded=0;entryX=0.558;entryY=0.033;entryDx=0;entryDy=0;entryPerimeter=0;" edge="1" parent="0HKcewtW-88DahNUEZpr-1">
          <mxGeometry width="100" relative="1" as="geometry">
            <mxPoint x="179.5" y="308" as="sourcePoint" />
            <mxPoint x="179.5" y="370" as="targetPoint" />
            <Array as="points">
              <mxPoint x="179.5" y="308" />
            </Array>
          </mxGeometry>
        </mxCell>
        <mxCell id="0HKcewtW-88DahNUEZpr-36" value="Training the Model" style="rounded=0;whiteSpace=wrap;html=1;" vertex="1" parent="0HKcewtW-88DahNUEZpr-1">
          <mxGeometry x="120" y="480" width="120" height="60" as="geometry" />
        </mxCell>
        <mxCell id="0HKcewtW-88DahNUEZpr-40" style="edgeStyle=orthogonalEdgeStyle;rounded=0;orthogonalLoop=1;jettySize=auto;html=1;exitX=0.5;exitY=1;exitDx=0;exitDy=0;" edge="1" parent="0HKcewtW-88DahNUEZpr-1" source="0HKcewtW-88DahNUEZpr-36" target="0HKcewtW-88DahNUEZpr-37">
          <mxGeometry relative="1" as="geometry" />
        </mxCell>
        <mxCell id="0HKcewtW-88DahNUEZpr-37" value="Performance Analysis" style="rounded=0;whiteSpace=wrap;html=1;" vertex="1" parent="0HKcewtW-88DahNUEZpr-1">
          <mxGeometry x="120" y="600" width="120" height="60" as="geometry" />
        </mxCell>
        <mxCell id="0HKcewtW-88DahNUEZpr-41" value="The performance&amp;nbsp;&lt;br&gt;is satisfied?" style="rhombus;whiteSpace=wrap;html=1;" vertex="1" parent="0HKcewtW-88DahNUEZpr-1">
          <mxGeometry x="120" y="710" width="120" height="120" as="geometry" />
        </mxCell>
        <mxCell id="0HKcewtW-88DahNUEZpr-42" value="Trained Model" style="rounded=0;whiteSpace=wrap;html=1;" vertex="1" parent="0HKcewtW-88DahNUEZpr-1">
          <mxGeometry x="120" y="890" width="120" height="60" as="geometry" />
        </mxCell>
        <mxCell id="0HKcewtW-88DahNUEZpr-44" value="Prediction" style="rounded=0;whiteSpace=wrap;html=1;" vertex="1" parent="0HKcewtW-88DahNUEZpr-1">
          <mxGeometry x="295" y="980" width="120" height="60" as="geometry" />
        </mxCell>
        <mxCell id="0HKcewtW-88DahNUEZpr-45" value="Parameter Optim." style="rounded=0;whiteSpace=wrap;html=1;" vertex="1" parent="0HKcewtW-88DahNUEZpr-1">
          <mxGeometry x="375" y="600" width="120" height="60" as="geometry" />
        </mxCell>
        <mxCell id="0HKcewtW-88DahNUEZpr-64" value="&lt;hr&gt;" style="edgeStyle=segmentEdgeStyle;endArrow=classic;html=1;curved=0;rounded=0;endSize=8;startSize=8;sourcePerimeterSpacing=0;targetPerimeterSpacing=0;entryX=1;entryY=0.5;entryDx=0;entryDy=0;" edge="1" parent="0HKcewtW-88DahNUEZpr-1" target="0HKcewtW-88DahNUEZpr-44">
          <mxGeometry width="100" relative="1" as="geometry">
            <mxPoint x="560" y="430" as="sourcePoint" />
            <mxPoint x="460" y="1090" as="targetPoint" />
            <Array as="points">
              <mxPoint x="510" y="430" />
              <mxPoint x="510" y="1010" />
            </Array>
          </mxGeometry>
        </mxCell>
        <mxCell id="0HKcewtW-88DahNUEZpr-68" value="" style="edgeStyle=segmentEdgeStyle;endArrow=classic;html=1;curved=0;rounded=0;endSize=8;startSize=8;sourcePerimeterSpacing=0;targetPerimeterSpacing=0;entryX=0.442;entryY=1.05;entryDx=0;entryDy=0;entryPerimeter=0;" edge="1" parent="0HKcewtW-88DahNUEZpr-1" target="0HKcewtW-88DahNUEZpr-45">
          <mxGeometry width="100" relative="1" as="geometry">
            <mxPoint x="240" y="770" as="sourcePoint" />
            <mxPoint x="430" y="670" as="targetPoint" />
            <Array as="points">
              <mxPoint x="428" y="770" />
            </Array>
          </mxGeometry>
        </mxCell>
        <mxCell id="0HKcewtW-88DahNUEZpr-69" value="No" style="text;html=1;align=center;verticalAlign=middle;resizable=0;points=[];autosize=1;strokeColor=none;fillColor=none;" vertex="1" parent="0HKcewtW-88DahNUEZpr-1">
          <mxGeometry x="255" y="740" width="40" height="30" as="geometry" />
        </mxCell>
        <mxCell id="0HKcewtW-88DahNUEZpr-70" value="Yes" style="text;html=1;align=center;verticalAlign=middle;resizable=0;points=[];autosize=1;strokeColor=none;fillColor=none;" vertex="1" parent="0HKcewtW-88DahNUEZpr-1">
          <mxGeometry x="180" y="838" width="40" height="30" as="geometry" />
        </mxCell>
        <mxCell id="0HKcewtW-88DahNUEZpr-74" value="" style="edgeStyle=segmentEdgeStyle;endArrow=classic;html=1;curved=0;rounded=0;endSize=8;startSize=8;sourcePerimeterSpacing=0;targetPerimeterSpacing=0;exitX=0.5;exitY=1;exitDx=0;exitDy=0;" edge="1" parent="0HKcewtW-88DahNUEZpr-1" source="0HKcewtW-88DahNUEZpr-42">
          <mxGeometry width="100" relative="1" as="geometry">
            <mxPoint x="180" y="970" as="sourcePoint" />
            <mxPoint x="295" y="1010" as="targetPoint" />
            <Array as="points">
              <mxPoint x="180" y="1010" />
            </Array>
          </mxGeometry>
        </mxCell>
        <mxCell id="0HKcewtW-88DahNUEZpr-46" value="" style="edgeStyle=orthogonalEdgeStyle;rounded=0;orthogonalLoop=1;jettySize=auto;html=1;" edge="1" parent="1">
          <mxGeometry relative="1" as="geometry">
            <mxPoint x="230" y="140" as="sourcePoint" />
            <mxPoint x="230" y="170" as="targetPoint" />
            <Array as="points">
              <mxPoint x="230" y="120" />
              <mxPoint x="230" y="120" />
            </Array>
          </mxGeometry>
        </mxCell>
        <mxCell id="0HKcewtW-88DahNUEZpr-47" value="" style="edgeStyle=orthogonalEdgeStyle;rounded=0;orthogonalLoop=1;jettySize=auto;html=1;exitX=0.5;exitY=1;exitDx=0;exitDy=0;" edge="1" parent="1" source="0HKcewtW-88DahNUEZpr-41">
          <mxGeometry relative="1" as="geometry">
            <mxPoint x="230" y="310" as="sourcePoint" />
            <mxPoint x="240" y="350" as="targetPoint" />
            <Array as="points">
              <mxPoint x="240" y="350" />
            </Array>
          </mxGeometry>
        </mxCell>
        <mxCell id="0HKcewtW-88DahNUEZpr-65" value="" style="edgeStyle=segmentEdgeStyle;endArrow=classic;html=1;curved=0;rounded=0;endSize=8;startSize=8;sourcePerimeterSpacing=0;targetPerimeterSpacing=0;" edge="1" parent="1" target="0HKcewtW-88DahNUEZpr-36">
          <mxGeometry width="100" relative="1" as="geometry">
            <mxPoint x="490" y="60" as="sourcePoint" />
            <mxPoint x="390" y="-40" as="targetPoint" />
            <Array as="points">
              <mxPoint x="480" y="60" />
              <mxPoint x="480" y="-40" />
            </Array>
          </mxGeometry>
        </mxCell>
      </root>
    </mxGraphModel>
  </diagram>
</mxfile>
